# xmcd
#
# Track frame offsets:
#	150
#	18800
#	39165
#	60847
#	86772
#	104600
#	122450
#	139400
#	154845
#	172925
#	193665
#	215222
#	231100
#
# Disc length: 3351 seconds
#
# Revision: 1
# Processed by: cddbd v1.5.1PL0 Copyright (c) Steve Scherf et al.
# Submitted via: CDex 1.50Beta5
#
DISCID=a80d150d
DTITLE=ウインズ - ライバル
DYEAR=1993
DGENRE=Pop
TTITLE0=世界中に笑顔を
TTITLE1=苦い記憶
TTITLE2=地球の上で
TTITLE3=見ていてくれ
TTITLE4=ライバル
TTITLE5=恋人達の片隅
TTITLE6=君が抱きたい
TTITLE7=季節の予感
TTITLE8=夢のニュース
TTITLE9=夢をありがとう
TTITLE10=街はスパイス
TTITLE11=ウイスキーのように愛して
TTITLE12=ほっといてんか
EXTD=
EXTT0=
EXTT1=
EXTT2=
EXTT3=
EXTT4=
EXTT5=
EXTT6=
EXTT7=
EXTT8=
EXTT9=
EXTT10=
EXTT11=
EXTT12=
PLAYORDER=
